<svg xmlns="http://www.w3.org/2000/svg" viewBox="0 0 263 39.76"><defs><style>.cls-1{fill:#1c1c1c;}.cls-2{fill:#fcaf17;}</style></defs><title>delivery_business-line</title><g id="Layer_2" data-name="Layer 2"><g id="Layer_1-2" data-name="Layer 1"><g id="Слой_1"><path class="cls-1" d="M73.51,35.65h7.57l1.75-3.08H73.51Zm59.32-3h-5.9v-3h5.9c.95,0,1.64.23,1.64,1.49C134.47,32.15,134,32.68,132.83,32.68Zm-5.9-8.07h5.36c.8,0,1.14.42,1.14,1.22a1.13,1.13,0,0,1-1.14,1.26h-5.36Zm8.25,2.77a2.42,2.42,0,0,0,1.64-2.51c0-2.89-2.43-3.23-4.15-3.23h-9.06v14h9.21c4.22,0,5.1-2.32,5.1-4.45a3.61,3.61,0,0,0-2.74-3.81Zm27.9,8.26h7.57l1.75-3.08h-9.32v3.08ZM73.51,27.09v3.08H84.2L86,27.09H73.51Zm75.95,5.59h-4.91V29.56h4.91c.57,0,1.45.15,1.45,1.56s-.72,1.56-1.45,1.56Zm.19-6h-5.1v-5H141.2v14h8.41c2.28,0,4.64-1.26,4.64-4.57C154.25,26.74,151.21,26.67,149.65,26.67Zm6.32,9h3.31v-14H156Zm-62.75-14-8,14h4l5.29-9.25,5.33,9.25h4.15l-8-14H93.22Zm19.1,11.11c-3.23,0-4.6-1.86-4.6-4.15,0-2.51,1.56-4.19,4.6-4.19,3.43,0,4.6,1.67,4.6,4.19C116.92,31.61,114.68,32.76,112.32,32.76Zm0-11.45c-5.59,0-8.26,3.42-8.26,7.27,0,4,2.59,7.27,8.26,7.27,2.47,0,8.18-1.14,8.18-7.27C120.54,24.57,118,21.3,112.36,21.3ZM54.29,32.56l5.29-9.25,5.33,9.25H54.29Zm6.77-14H58.32l-8,14h-2v7.19h3.19V35.65H67.91v4.11h3.2V32.56h-2l-8-14Zm28,3.08H73.51v3.08H87.32l1.79-3.08h0Zm74,5.44v3.08h10.69l1.79-3.08Zm15.6-5.44h-15.6v3.08h13.81l1.79-3.08h0Zm81.35,0-7.92,9.09V21.64h-3.35v14h2.82l8.07-9.17v9.17H263v-14h-3Zm-77.24,0-8,14h4L184,26.4l5.33,9.25h4.15l-8-14h-2.66Zm40.79,5.44h-7.34V21.64h-3.35v14h3.35V30.17h7.34v5.48h3.35v-14h-3.35Zm10.5,3.65V21.65h-3.35v14h2.81l8.07-9.17v9.17H245v-14h-3Zm-35.88-.08v-9h-3.35v14h2.82l8.07-9.09v9.09h3.35v-14h-2.81l-8.07,9Z"/><path class="cls-2" d="M23.65,28.89,7.86,22.05,4.51,27.86l17.77,3.42,1.38-2.39Zm-2.2,6.78h5.25l4.62-8,4.61,8h5.25L31.32,18.58,21.45,35.67h0ZM3.72,29.22,0,35.67H19.74l1.75-3L3.72,29.22ZM30.46,17.1,20.59,0,16.87,6.46,28.71,20.13l1.75-3h0Zm-2.54,4.4L16.08,7.82l-3.35,5.8L26.55,23.88l1.38-2.39ZM25.8,25.17,12,14.92,8.61,20.76,24.4,27.6l1.4-2.43Z"/></g></g></g></svg>