<svg xmlns="http://www.w3.org/2000/svg" viewBox="0 0 20.18 21.68"><defs><style>.cls-1{fill:#54617b;}.cls-2{fill:#55627c;}</style></defs><title>basket-ico</title><g id="Layer_2" data-name="Layer 2"><g id="Layer_1-2" data-name="Layer 1"><path class="cls-1" d="M5.84,14.21H17.56A2.42,2.42,0,0,0,20,11.8v-5a.06.06,0,0,0,0,0V6.54l0,0,0,0,0,0,0,0,0,0,0,0,0,0,0,0h0l0,0-.05,0h-.16L4.61,4.22V2.15a.28.28,0,0,0,0-.06v0s0,0,0,0V1.92l0,0v0l0,0v0l0,0,0,0h0l0,0h0l0,0,0,0h0l-.06,0L1,.24A.59.59,0,1,0,.56,1.33L3.42,2.54V15.48a2.42,2.42,0,0,0,2.1,2.39A2.38,2.38,0,1,0,10,19.1a2.34,2.34,0,0,0-.33-1.2h5.31a2.35,2.35,0,0,0-.33,1.2A2.38,2.38,0,1,0,17,16.71H5.84A1.23,1.23,0,0,1,4.6,15.48v-1.6a2.44,2.44,0,0,0,1.23.33Zm2.94,4.88a1.2,1.2,0,1,1-1.2-1.2,1.21,1.21,0,0,1,1.2,1.2Zm9.42,0a1.2,1.2,0,1,1-1.2-1.2,1.21,1.21,0,0,1,1.2,1.2ZM17.56,13H5.84A1.23,1.23,0,0,1,4.6,11.8V5.41l14.19,2v4.42A1.24,1.24,0,0,1,17.56,13Zm0,0"/><path class="cls-2" d="M17,21.68a2.58,2.58,0,0,1-2.38-3.59H10A2.59,2.59,0,1,1,5.22,18a2.62,2.62,0,0,1-2-2.54V2.67L.48,1.52a.79.79,0,0,1-.42-1,.8.8,0,0,1,1-.42l3.3,1.4h0l.28.26,0,.05v0l0,.07,0,.16a.24.24,0,0,1,0,.07h0a.2.2,0,0,1,0,.06v1.9l14.72,2h.06s.05,0,.08,0l0,.2.09-.18.24.17s0,0,0,0h0l.14.26h0v0l0,0v0a.25.25,0,0,1,0,.09v5a2.62,2.62,0,0,1-2.62,2.61H5.84a2.65,2.65,0,0,1-1-.21v1.28a1,1,0,0,0,1,1H17a2.58,2.58,0,1,1,0,5.17Zm-7.72-4h6l-.18.3a2.16,2.16,0,0,0-.3,1.1A2.18,2.18,0,1,0,17,16.91H5.84A1.44,1.44,0,0,1,4.4,15.48v-2l.3.18a2.24,2.24,0,0,0,1.13.3H17.56a2.22,2.22,0,0,0,2.21-2.21l-.06-5.14,0-.06h0l0,0,0,0-.05,0,0,0h-.13L4.41,4.4,4.39,2h0V2h0V2h0l-.14-.14h0l0,0h0L.94.43a.39.39,0,1,0-.3.72l3,1.26V15.48a2.22,2.22,0,0,0,1.93,2.19l.3,0L5.7,18A2.18,2.18,0,1,0,9.75,19.1a2.13,2.13,0,0,0-.3-1.1ZM17,20.49a1.4,1.4,0,1,1,1.4-1.4A1.41,1.41,0,0,1,17,20.49Zm0-2.41a1,1,0,1,0,1,1A1,1,0,0,0,17,18.09ZM7.57,20.49A1.4,1.4,0,1,1,9,19.09,1.41,1.41,0,0,1,7.57,20.49Zm0-2.41a1,1,0,1,0,1,1A1,1,0,0,0,7.57,18.09Zm10-4.86H5.84A1.44,1.44,0,0,1,4.4,11.8V5.18L19,7.2v4.6A1.44,1.44,0,0,1,17.56,13.23ZM4.8,5.64V11.8a1,1,0,0,0,1,1H17.56a1,1,0,0,0,1-1V7.54Z"/></g></g></svg>