<svg xmlns="http://www.w3.org/2000/svg" viewBox="0 0 55.67 68.14"><defs><style>.cls-1{fill:none;stroke:#b6bdc7;stroke-miterlimit:10;stroke-width:3px;}</style></defs><title>characteristics-ico-1</title><g id="Слой_2" data-name="Слой 2"><g id="Layer_1" data-name="Layer 1"><path id="_Контур_" data-name="&lt;Контур&gt;" class="cls-1" d="M5.72,58.91C3.46,60.54,1.5,62.48,1.5,64.82a209.68,209.68,0,0,0,28.34,1.82c16.33,0,24-1.82,24-1.82.05-2.36-1.87-4.3-4.11-5.91"/><path id="_Контур_2" data-name="&lt;Контур&gt;" class="cls-1" d="M5.72,52.58C3.46,54.2,1.5,56.15,1.5,58.49a209.68,209.68,0,0,0,28.34,1.82c16.33,0,24-1.82,24-1.82.05-2.36-1.87-4.3-4.11-5.91"/><path id="_Контур_3" data-name="&lt;Контур&gt;" class="cls-1" d="M5.72,46.25C3.46,47.87,1.5,49.81,1.5,52.16A209.68,209.68,0,0,0,29.84,54c16.33,0,24-1.82,24-1.82.05-2.36-1.87-4.3-4.11-5.91"/><path id="_Контур_4" data-name="&lt;Контур&gt;" class="cls-1" d="M5.72,39.91C3.46,41.54,1.5,43.48,1.5,45.82a209.68,209.68,0,0,0,28.34,1.82c16.33,0,24-1.82,24-1.82.05-2.36-1.87-4.3-4.11-5.91"/><path id="_Контур_5" data-name="&lt;Контур&gt;" class="cls-1" d="M5.72,33.58C3.46,35.2,1.5,37.15,1.5,39.49a209.68,209.68,0,0,0,28.34,1.82c16.33,0,24-1.82,24-1.82.05-2.36-1.87-4.3-4.11-5.91"/><path id="_Контур_6" data-name="&lt;Контур&gt;" class="cls-1" d="M5.72,27.25C3.46,28.87,1.5,30.81,1.5,33.16A209.68,209.68,0,0,0,29.84,35c16.33,0,24-1.82,24-1.82.05-2.36-1.87-4.3-4.11-5.91"/><path id="_Контур_7" data-name="&lt;Контур&gt;" class="cls-1" d="M5.72,20.91C3.46,22.54,1.5,24.48,1.5,26.82a209.68,209.68,0,0,0,28.34,1.82c16.33,0,24-1.82,24-1.82.05-2.36-1.87-4.3-4.11-5.91"/><path id="_Контур_8" data-name="&lt;Контур&gt;" class="cls-1" d="M5.72,14.58C3.46,16.2,1.5,18.15,1.5,20.49a209.68,209.68,0,0,0,28.34,1.82c16.33,0,24-1.82,24-1.82.05-2.36-1.87-4.3-4.11-5.91"/><path id="_Контур_9" data-name="&lt;Контур&gt;" class="cls-1" d="M14.16,1.5h27a1.69,1.69,0,0,1,1.69,1.69V4H12.47V3.19A1.69,1.69,0,0,1,14.16,1.5Z"/><path id="_Контур_10" data-name="&lt;Контур&gt;" class="cls-1" d="M1.83,15c0-5.56,11-8.86,11-11H43.19c0,2.11,11.1,5.33,11,11Z"/></g></g></svg>