<svg xmlns="http://www.w3.org/2000/svg" viewBox="0 0 51.79 62.79"><defs><style>.cls-1{fill:none;stroke:#b6bdc7;stroke-miterlimit:10;stroke-width:3px;}</style></defs><title>characteristics-ico-3</title><g id="Слой_2" data-name="Слой 2"><g id="Layer_1" data-name="Layer 1"><g id="_Группа_" data-name="&lt;Группа&gt;"><g id="_Группа_2" data-name="&lt;Группа&gt;"><g id="_Группа_3" data-name="&lt;Группа&gt;"><path id="_Составной_контур_" data-name="&lt;Составной контур&gt;" class="cls-1" d="M1.59,13.45a135.94,135.94,0,0,0,.94,22.27,25.68,25.68,0,0,0,7,15,40.23,40.23,0,0,0,8.53,6.38c2.48,1.46,5,2.77,7.63,4a.72.72,0,0,0,.72.06,64.37,64.37,0,0,0,14.33-9.06,25.61,25.61,0,0,0,7.75-13,59,59,0,0,0,1.69-12.32c.1-2,.13-3.92.12-5.88,0-2.45,0-4.9-.12-7.35,0-.49-.18-.63-.66-.69A13.79,13.79,0,0,1,43.75,11,9,9,0,0,1,40,5.45a20.89,20.89,0,0,1-.49-2.25c-.05-.32-.15-.46-.5-.52a87.42,87.42,0,0,0-12-1.17A80.84,80.84,0,0,0,12.85,2.64c-.57.09-.65.38-.72.82a12.49,12.49,0,0,1-2.34,6,9.12,9.12,0,0,1-5,2.95,13.9,13.9,0,0,1-2.76.53C1.73,13,1.59,13.08,1.59,13.45Z"/></g></g></g><polyline id="_Контур_" data-name="&lt;Контур&gt;" class="cls-1" points="18.92 29.44 25.64 36.39 33.75 22.72"/><g id="_Группа_4" data-name="&lt;Группа&gt;"><g id="_Группа_5" data-name="&lt;Группа&gt;"><g id="_Группа_6" data-name="&lt;Группа&gt;"><path id="_Составной_контур_2" data-name="&lt;Составной контур&gt;" class="cls-1" d="M6.19,16.85A110.17,110.17,0,0,0,7,34.9a20.82,20.82,0,0,0,5.67,12.18,32.61,32.61,0,0,0,6.91,5.17c2,1.18,4.08,2.24,6.18,3.26a.59.59,0,0,0,.58,0,52.17,52.17,0,0,0,11.62-7.34A20.75,20.75,0,0,0,44.19,37.7a47.84,47.84,0,0,0,1.37-10c.08-1.59.1-3.18.1-4.77,0-2,0-4-.09-6,0-.4-.15-.51-.53-.56a11.18,11.18,0,0,1-4.68-1.56,7.32,7.32,0,0,1-3-4.51A16.93,16.93,0,0,1,37,8.54c0-.26-.12-.37-.4-.42a70.85,70.85,0,0,0-9.69-.95,65.52,65.52,0,0,0-11.55.92c-.46.07-.53.3-.58.66a10.13,10.13,0,0,1-1.9,4.87,7.39,7.39,0,0,1-4,2.39,11.27,11.27,0,0,1-2.23.43C6.31,16.47,6.2,16.55,6.19,16.85Z"/></g></g></g></g></g></svg>