<svg xmlns="http://www.w3.org/2000/svg" viewBox="0 0 14.48 13.61"><defs><style>.cls-1{fill:#fff;}.cls-2{fill:none;stroke:#3b7ec1;stroke-linecap:round;stroke-miterlimit:10;stroke-width:2px;}</style></defs><title>test</title><g id="Layer_2" data-name="Layer 2"><g id="Layer_1-2" data-name="Layer 1"><path class="cls-1" d="M11.16,6.38c1-1.28,2.34-1.94,3.32-1.51a.39.39,0,0,0-.14-.21L8.18.08A.42.42,0,0,0,7.83,0c.58.83.44,2.22-.52,3.5S5,5.34,4.11,5a.42.42,0,0,1,.16.32l6.15,4.58a.35.35,0,0,0,.24.08A3.27,3.27,0,0,1,11.16,6.38Z"/><polyline id="_Path_" data-name="&lt;Path&gt;" class="cls-2" points="1 9.06 3.9 12.06 11.8 1.26"/></g></g></svg>