<svg xmlns="http://www.w3.org/2000/svg" viewBox="0 0 46.46 46.46"><defs><style>.cls-1{fill:none;stroke:#4586c6;stroke-miterlimit:10;stroke-width:3px;fill-rule:evenodd;}</style></defs><title>ico-settings</title><g id="Layer_2" data-name="Layer 2"><g id="Layer_1-2" data-name="Layer 1"><path class="cls-1" d="M44.82,20.82a1.41,1.41,0,0,0-1.4-1.07,4.8,4.8,0,0,1-3.28-8.35,1.21,1.21,0,0,0,.13-1.64,21.5,21.5,0,0,0-3.44-3.48,1.21,1.21,0,0,0-1.65.13,5,5,0,0,1-5.42,1.22,4.83,4.83,0,0,1-2.93-4.72,1.21,1.21,0,0,0-1.07-1.27,21.68,21.68,0,0,0-4.89,0,1.21,1.21,0,0,0-1.08,1.24,4.84,4.84,0,0,1-3,4.64,5,5,0,0,1-5.38-1.23A1.21,1.21,0,0,0,9.8,6.15,21.59,21.59,0,0,0,6.28,9.62a1.21,1.21,0,0,0,.13,1.65A4.81,4.81,0,0,1,7.63,16.7,5,5,0,0,1,2.9,19.63,1.18,1.18,0,0,0,1.65,20.7a21.76,21.76,0,0,0,0,4.94,1.44,1.44,0,0,0,1.43,1.07,4.77,4.77,0,0,1,4.47,3,4.83,4.83,0,0,1-1.22,5.37,1.21,1.21,0,0,0-.13,1.64,21.57,21.57,0,0,0,3.44,3.48A1.21,1.21,0,0,0,11.28,40a5,5,0,0,1,5.42-1.22,4.82,4.82,0,0,1,2.94,4.72,1.21,1.21,0,0,0,1.07,1.27,21.64,21.64,0,0,0,4.89,0,1.21,1.21,0,0,0,1.08-1.24,4.83,4.83,0,0,1,3-4.63A5,5,0,0,1,35,40.17a1.21,1.21,0,0,0,1.64.14,21.65,21.65,0,0,0,3.51-3.48A1.21,1.21,0,0,0,40,35.18a4.81,4.81,0,0,1-1.22-5.42,4.86,4.86,0,0,1,4.44-2.95h.27a1.21,1.21,0,0,0,1.27-1.07,21.68,21.68,0,0,0,0-4.94ZM23.26,30.52a7.25,7.25,0,1,1,7.25-7.25,7.25,7.25,0,0,1-7.25,7.25Zm0,0"/></g></g></svg>