<svg xmlns="http://www.w3.org/2000/svg" xmlns:xlink="http://www.w3.org/1999/xlink" viewBox="0 0 92.96 92.96"><defs><style>.cls-1{fill:none;}.cls-2{clip-path:url(#clip-path);}.cls-3{fill:#4586c6;}</style><clipPath id="clip-path"><rect class="cls-1" y="0.08" width="92.88" height="93.84"/></clipPath></defs><title>ico-print</title><g id="Layer_2" data-name="Layer 2"><g id="Layer_1-2" data-name="Layer 1"><g class="cls-2"><path class="cls-3" d="M3.28,78.88H21.6v10.8A3.24,3.24,0,0,0,24.88,93h43.2a3.24,3.24,0,0,0,3.28-3.28V78.88H89.68A3.24,3.24,0,0,0,93,75.6V17.36a3.25,3.25,0,0,0-3.28-3.28H71.36V3.28A3.24,3.24,0,0,0,68.08,0H24.88A3.24,3.24,0,0,0,21.6,3.28v10.8H3.28A3.25,3.25,0,0,0,0,17.36V75.6a3.35,3.35,0,0,0,3.28,3.28ZM64.8,86.4H28.16v-27H64.8ZM28.16,6.56H64.8v7.52H28.16ZM6.56,20.64H86.4V72.32h-15v-13H77.2a3.28,3.28,0,1,0,0-6.56H15.84a3.28,3.28,0,1,0,0,6.56h5.84v13H6.56Zm0,0"/></g><path class="cls-3" d="M63.84,37.52h8.48a3.28,3.28,0,1,0,0-6.56H63.84a3.28,3.28,0,1,0,0,6.56Zm0,0"/></g></g></svg>