<svg xmlns="http://www.w3.org/2000/svg" viewBox="0 0 46.23 56.33"><defs><style>.cls-1{fill:none;stroke:#b6bdc7;stroke-miterlimit:10;stroke-width:3px;}</style></defs><title>ico-weight</title><g id="Слой_2" data-name="Слой 2"><g id="Layer_1" data-name="Layer 1"><g id="_Группа_" data-name="&lt;Группа&gt;"><path id="_Контур_" data-name="&lt;Контур&gt;" class="cls-1" d="M28.64,8.66h-11a2.53,2.53,0,0,0-2.51,2.78l.44,3.92a21.32,21.32,0,0,1,15.21,0l.44-4a2.53,2.53,0,0,0-2.52-2.73Z"/><path id="_Составной_контур_" data-name="&lt;Составной контур&gt;" class="cls-1" d="M37.47,19.43l.81-7.3a9.7,9.7,0,0,0-6.9-10.25,9.88,9.88,0,0,0-2.89-.39H17.87a10.22,10.22,0,0,0-4.23.83A9.71,9.71,0,0,0,8,12.18l.81,7.25A21.55,21.55,0,0,0,9.08,52a12,12,0,0,0,7.77,2.85H29.42a11.44,11.44,0,0,0,7.13-2.36,21.56,21.56,0,0,0,.92-33Zm-6.31-8-.44,4a21.31,21.31,0,0,0-15.21,0l-.44-3.92a2.53,2.53,0,0,1,2.51-2.78h11a2.51,2.51,0,0,1,1.87.83A2.48,2.48,0,0,1,31.16,11.39Z"/></g><path id="_Контур_2" data-name="&lt;Контур&gt;" class="cls-1" d="M25.31,23.17A12.67,12.67,0,0,1,38,35.83"/></g></g></svg>