<?xml version="1.0" encoding="utf-8"?>
<!-- Generator: Adobe Illustrator 22.0.0, SVG Export Plug-In . SVG Version: 6.00 Build 0)  -->
<svg version="1.1" id="Layer_1" xmlns="http://www.w3.org/2000/svg" xmlns:xlink="http://www.w3.org/1999/xlink" x="0px" y="0px"
	 viewBox="0 0 52 20.9" style="enable-background:new 0 0 52 20.9;" xml:space="preserve">
<style type="text/css">
	.st0{fill:none;stroke:#4280C1;stroke-width:3;stroke-miterlimit:10;}
	.st1{fill:none;stroke:#4280C1;stroke-width:2;stroke-miterlimit:10;}
	.st2{enable-background:new    ;}
	.st3{fill:#4280C1;}
</style>
<title>pdf-ico</title>
<g id="Слой_2">
	<g id="Layer_1_1_">
		<line id="_Контур_" class="st0" x1="0" y1="19.4" x2="52" y2="19.4"/>
		<polyline id="_Контур_2" class="st1" points="38,7.7 43.3,13.1 48.4,7.9 		"/>
		<line id="_Контур_3" class="st1" x1="43.5" y1="13.1" x2="43.5" y2="1.4"/>
		<g class="st2">
			<path class="st3" d="M2.6,11.4c0.3,0,0.6,0.1,0.8,0.3s0.3,0.4,0.3,0.7c0,0.3-0.1,0.5-0.3,0.7c-0.2,0.2-0.5,0.3-0.8,0.3
				c-0.3,0-0.6-0.1-0.8-0.3s-0.3-0.4-0.3-0.7c0-0.3,0.1-0.5,0.3-0.7S2.3,11.4,2.6,11.4z"/>
			<path class="st3" d="M7.9,9.2v4.1H6V2.2h4.2c1.2,0,2.2,0.3,2.9,1c0.7,0.6,1.1,1.5,1.1,2.6c0,1.1-0.4,1.9-1.1,2.5
				c-0.7,0.6-1.7,0.9-3,0.9H7.9z M7.9,7.7h2.3c0.7,0,1.2-0.2,1.6-0.5c0.4-0.3,0.5-0.8,0.5-1.4c0-0.6-0.2-1.1-0.5-1.4
				c-0.4-0.4-0.9-0.5-1.5-0.6H7.9V7.7z"/>
			<path class="st3" d="M15.9,13.3V2.2h3.3c1,0,1.8,0.2,2.6,0.7c0.8,0.4,1.3,1.1,1.8,1.9c0.4,0.8,0.6,1.7,0.6,2.8v0.6
				c0,1-0.2,2-0.6,2.8c-0.4,0.8-1,1.4-1.8,1.8s-1.7,0.6-2.7,0.6H15.9z M17.8,3.8v8h1.3c1,0,1.8-0.3,2.3-0.9c0.5-0.6,0.8-1.5,0.8-2.7
				V7.5c0-1.2-0.3-2.1-0.8-2.8s-1.3-1-2.3-1H17.8z"/>
			<path class="st3" d="M32.5,8.6H28v4.7h-1.9V2.2h7v1.5H28v3.3h4.5V8.6z"/>
		</g>
	</g>
</g>
</svg>
