<svg xmlns="http://www.w3.org/2000/svg" viewBox="0 0 45.34 41.73"> <polygon points="45.34 41.73 0 41.73 24.53 0 27.12 1.52 5.24 38.73 45.34 38.73 45.34 41.73" /> <path d="M22.59,40.12a26.27,26.27,0,0,0-1.85-6.92,16.8,16.8,0,0,0-3.52-5.74l2-2.22a19.25,19.25,0,0,1,4.29,6.85,28.58,28.58,0,0,1,2.06,7.82Z" /> <path d="M35.17,41.24a57.31,57.31,0,0,0-4.84-17.05A42.6,42.6,0,0,0,20.12,11.26L22,8.91a45.09,45.09,0,0,1,11,14,59.37,59.37,0,0,1,5.13,18.08Z" /> <rect x="2.75" y="38.13" width="2.5" height="3" transform="translate(-24.95 12.28) rotate(-40.87)" /> <path d="M9.44,36.91l-2-2.27,3.51-3,2,2.27Zm7-6.07-2-2.27,3.51-3,2,2.27Zm7-6.07-2-2.27,3.51-3,2,2.27Zm7-6.07-2-2.27,3.51-3,2,2.27Z" /> <rect x="36.21" y="9.19" width="2.5" height="3" transform="translate(2.14 27.11) rotate(-40.87)" /> </svg>