<svg xmlns="http://www.w3.org/2000/svg" viewBox="0 0 48.26 48.26"> <path d="M24.13,48.26A24.13,24.13,0,1,1,48.26,24.13,24.16,24.16,0,0,1,24.13,48.26ZM24.13,3A21.13,21.13,0,1,0,45.26,24.13,21.15,21.15,0,0,0,24.13,3Z" /> <path d="M24.13,29.26a5.13,5.13,0,1,1,5.13-5.13A5.14,5.14,0,0,1,24.13,29.26Zm0-7.26a2.13,2.13,0,1,0,2.13,2.13A2.13,2.13,0,0,0,24.13,22Z" /> <path d="M24.13,43.26A19.13,19.13,0,1,1,43.26,24.13,19.15,19.15,0,0,1,24.13,43.26ZM24.13,8A16.13,16.13,0,1,0,40.26,24.13,16.15,16.15,0,0,0,24.13,8Z" /> <path d="M24.13,35.26A11.13,11.13,0,1,1,35.26,24.13,11.14,11.14,0,0,1,24.13,35.26Zm0-19.26a8.13,8.13,0,1,0,8.13,8.13A8.14,8.14,0,0,0,24.13,16Z" /> <rect x="1.37" y="22.16" width="7.67" height="3" /> <rect x="38.37" y="22.83" width="8.67" height="3" /> </svg>