<svg xmlns="http://www.w3.org/2000/svg" viewBox="0 0 13.44 29.75"> <path d="M6.5,9.56c-2.63,0-5-.9-5.62-2.13A1.3,1.3,0,0,1,1,6c.83-1.15,3.17-1.9,6-1.9a10.86,10.86,0,0,1,4.74,1.25.5.5,0,0,1-.49.87A10,10,0,0,0,6.94,5.13c-2.41,0-4.53.61-5.16,1.48a.31.31,0,0,0,0,.37c.33.64,2.06,1.58,4.73,1.58,5.82,0,5.94-2.35,5.94-2.37V.5a.5.5,0,0,1,1,0V6.19a2.46,2.46,0,0,1-.79,1.66C11.53,9,9.46,9.56,6.5,9.56Z" /> <path d="M6.5,12.13c-2.63,0-5-.9-5.62-2.13A1.3,1.3,0,0,1,1,8.58c.83-1.15,3.17-1.9,6-1.9a10.86,10.86,0,0,1,4.74,1.25.5.5,0,0,1-.49.87A10,10,0,0,0,6.94,7.69c-2.41,0-4.53.61-5.16,1.48a.31.31,0,0,0,0,.37c.33.64,2.06,1.58,4.73,1.58,5.82,0,5.94-2.35,5.94-2.37a.51.51,0,0,1,.5-.49.49.49,0,0,1,.5.48,2.46,2.46,0,0,1-.79,1.67C11.53,11.55,9.46,12.13,6.5,12.13Z" /> <path d="M6.5,14.69c-2.63,0-5-.9-5.62-2.13A1.3,1.3,0,0,1,1,11.15c.83-1.15,3.17-1.9,6-1.9a10.86,10.86,0,0,1,4.74,1.25.5.5,0,0,1-.49.87,10,10,0,0,0-4.26-1.12c-2.41,0-4.53.61-5.16,1.48a.31.31,0,0,0,0,.37c.33.64,2.06,1.58,4.73,1.58,5.82,0,5.94-2.35,5.94-2.37a.51.51,0,0,1,.5-.49.49.49,0,0,1,.5.48A2.46,2.46,0,0,1,12.65,13C11.53,14.11,9.46,14.69,6.5,14.69Z" /> <path d="M6.5,17.25c-2.63,0-5-.9-5.62-2.13A1.3,1.3,0,0,1,1,13.71c.83-1.15,3.17-1.9,6-1.9a10.86,10.86,0,0,1,4.74,1.25.5.5,0,0,1-.49.87,10,10,0,0,0-4.26-1.12c-2.41,0-4.53.61-5.16,1.48a.31.31,0,0,0,0,.37c.33.64,2.06,1.58,4.73,1.58,5.82,0,5.94-2.35,5.94-2.37a.51.51,0,0,1,.5-.49.49.49,0,0,1,.5.48,2.46,2.46,0,0,1-.79,1.67C11.53,16.67,9.46,17.25,6.5,17.25Z" /> <path d="M6.5,19.81c-2.63,0-5-.9-5.62-2.13A1.3,1.3,0,0,1,1,16.27c.83-1.15,3.17-1.9,6-1.9a10.86,10.86,0,0,1,4.74,1.25.5.5,0,0,1-.49.87,10,10,0,0,0-4.26-1.12c-2.41,0-4.53.61-5.16,1.48a.31.31,0,0,0,0,.37c.33.64,2.06,1.58,4.73,1.58,5.82,0,5.94-2.35,5.94-2.37a.51.51,0,0,1,.5-.49.49.49,0,0,1,.5.48,2.46,2.46,0,0,1-.79,1.67C11.53,19.23,9.46,19.81,6.5,19.81Z" /> <path d="M6.5,22.38c-2.63,0-5-.9-5.62-2.13A1.3,1.3,0,0,1,1,18.83c.83-1.15,3.17-1.9,6-1.9a10.86,10.86,0,0,1,4.74,1.25.5.5,0,0,1-.49.87,10,10,0,0,0-4.26-1.12c-2.41,0-4.53.61-5.16,1.48a.31.31,0,0,0,0,.37c.33.64,2.06,1.58,4.73,1.58,5.82,0,5.94-2.35,5.94-2.37a.51.51,0,0,1,.5-.49.49.49,0,0,1,.5.48,2.46,2.46,0,0,1-.79,1.67C11.53,21.8,9.46,22.38,6.5,22.38Z" /> <path d="M6.5,24.94c-2.63,0-5-.9-5.62-2.13A1.3,1.3,0,0,1,1,21.4c.83-1.15,3.17-1.9,6-1.9a10.86,10.86,0,0,1,4.74,1.25.5.5,0,0,1-.49.87A10,10,0,0,0,6.94,20.5c-2.41,0-4.53.61-5.16,1.48a.31.31,0,0,0,0,.37c.33.64,2.06,1.58,4.73,1.58,5.82,0,5.94-2.35,5.94-2.37a.51.51,0,0,1,.5-.49.49.49,0,0,1,.5.48,2.46,2.46,0,0,1-.79,1.67C11.53,24.36,9.46,24.94,6.5,24.94Z" /> <path d="M6.5,27.5c-2.63,0-5-.9-5.62-2.13A1.3,1.3,0,0,1,1,24c.83-1.15,3.17-1.9,6-1.9a10.67,10.67,0,0,1,4.33,1l.41.21a.5.5,0,0,1-.49.87L10.84,24a9.84,9.84,0,0,0-3.91-.95c-2.41,0-4.53.61-5.16,1.48a.31.31,0,0,0,0,.37c.33.64,2.06,1.58,4.73,1.58,5.82,0,5.94-2.35,5.94-2.37a.51.51,0,0,1,.5-.49.49.49,0,0,1,.5.48,2.46,2.46,0,0,1-.79,1.67C11.53,26.92,9.46,27.5,6.5,27.5Z" /> <path d="M5.58,29.75a50.13,50.13,0,0,1-5.13-.32.5.5,0,1,1,.1-1,45.28,45.28,0,0,0,5.5.31H6.5c5.82,0,5.94-2.35,5.94-2.37a.51.51,0,0,1,.5-.49.49.49,0,0,1,.5.48A2.46,2.46,0,0,1,12.65,28c-1.12,1.14-3.19,1.72-6.15,1.72H5.58Z" /> <path d="M12.94,26.81a.5.5,0,0,1-.5-.5V6.19a.5.5,0,1,1,1,0V26.31A.5.5,0,0,1,12.94,26.81Z" /> </svg>