<svg xmlns="http://www.w3.org/2000/svg" viewBox="0 0 85.38 79.27"> <path d="M62.59,53.81H62.5L1.41,50.11a1.5,1.5,0,0,1-.83-2.68L27.84,26.34a1.5,1.5,0,0,1,1.83,2.37L5.58,47.35l56.28,3.41L81,24.14l-38.52-.75A1.5,1.5,0,0,1,41,21.86a1.48,1.48,0,0,1,1.53-1.47l41.37.8a1.5,1.5,0,0,1,1.19,2.38L63.81,53.19A1.5,1.5,0,0,1,62.59,53.81Z" /> <path d="M62.59,67.7H62.5L1.41,64a1.5,1.5,0,0,1-.83-2.68L16.25,49.19a1.5,1.5,0,0,1,1.83,2.37L5.58,61.24l56.28,3.41L81,38l-5.47-.11a1.5,1.5,0,0,1,0-3h0l8.33.16a1.5,1.5,0,0,1,1.19,2.38L63.81,67.07A1.5,1.5,0,0,1,62.59,67.7Z" /> <path d="M62.59,79.27H62.5L1.41,75.56a1.5,1.5,0,0,1-.83-2.68L13.91,62.57a1.5,1.5,0,0,1,1.83,2.37L5.58,72.81l56.28,3.41L81,49.59l-5-.1a1.5,1.5,0,0,1,0-3h0l7.86.15A1.5,1.5,0,0,1,85.1,49L63.81,78.64A1.5,1.5,0,0,1,62.59,79.27Z" /> <path d="M42.66,34.41a1.5,1.5,0,0,1-.88-.29l-7-5.11-7,5.11a1.5,1.5,0,0,1-2.31-1.68l2.69-8.27-7-5.11a1.5,1.5,0,0,1,.88-2.71h8.69l2.69-8.27a1.5,1.5,0,0,1,2.85,0l2.69,8.27h8.69a1.5,1.5,0,0,1,.88,2.71l-7,5.11,2.69,8.27a1.5,1.5,0,0,1-1.43,2Zm-7.91-8.75a1.5,1.5,0,0,1,.88.29l4.18,3-1.6-4.91a1.5,1.5,0,0,1,.54-1.68l4.18-3H37.77a1.5,1.5,0,0,1-1.43-1l-1.6-4.91-1.6,4.91a1.5,1.5,0,0,1-1.43,1H26.56l4.18,3a1.5,1.5,0,0,1,.54,1.68L29.69,29l4.18-3A1.5,1.5,0,0,1,34.75,25.66Z" /> <polygon points="24.13 0.46 25.48 4.61 29.84 4.61 26.31 7.17 27.66 11.32 24.13 8.76 20.6 11.32 21.95 7.17 18.42 4.61 22.78 4.61 24.13 0.46" /> <path d="M27.66,11.82a.5.5,0,0,1-.29-.1L24.13,9.37,20.9,11.72a.5.5,0,0,1-.77-.56l1.23-3.8L18.13,5a.5.5,0,0,1,.29-.9h4L23.65.31a.52.52,0,0,1,1,0l1.23,3.8h4a.5.5,0,0,1,.29.9L26.9,7.36l1.23,3.8a.5.5,0,0,1-.48.65ZM24.13,8.26a.5.5,0,0,1,.29.1L26.71,10l-.87-2.68A.5.5,0,0,1,26,6.77L28.3,5.11H25.48A.5.5,0,0,1,25,4.76l-.87-2.68-.87,2.68a.5.5,0,0,1-.48.35H20l2.28,1.66a.5.5,0,0,1,.18.56L21.55,10l2.28-1.66A.5.5,0,0,1,24.13,8.26Z" /> </svg>