<svg xmlns="http://www.w3.org/2000/svg" viewBox="0 0 46.23 56.33"> <path d="M32,17.44l-1.81-.68a19.91,19.91,0,0,0-14.15,0l-1.81.68-.65-5.84a4,4,0,0,1,4-4.44h11a4,4,0,0,1,4,4.38Zm-8.88-5a22.81,22.81,0,0,1,6.32.9l.24-2.12a1,1,0,0,0-.27-.73,1,1,0,0,0-.76-.34h-11a1,1,0,0,0-1,1.13l.23,2.06A22.81,22.81,0,0,1,23.11,12.45Z" /> <path d="M29.42,56.33H16.85a13.47,13.47,0,0,1-8.74-3.21,23.05,23.05,0,0,1-.92-34.28l-.72-6.5A11.27,11.27,0,0,1,13,1a11.67,11.67,0,0,1,4.85-1H28.49a11.26,11.26,0,0,1,3.32.45,11.15,11.15,0,0,1,8,11.83L39,18.85a23.05,23.05,0,0,1-1.56,34.8A13,13,0,0,1,29.42,56.33ZM17.87,3a8.71,8.71,0,0,0-3.61.7A8.16,8.16,0,0,0,9.45,12l.89,8-.58.52a20.05,20.05,0,0,0,.3,30.29,10.47,10.47,0,0,0,6.79,2.49H29.42a10,10,0,0,0,6.2-2,20.06,20.06,0,0,0,.86-30.75L35.89,20l.9-8.07a8.17,8.17,0,0,0-5.85-8.65A8.33,8.33,0,0,0,28.49,3ZM32,17.44l-1.81-.68a19.91,19.91,0,0,0-14.15,0l-1.81.68-.65-5.84a4,4,0,0,1,4-4.44h11a4,4,0,0,1,4,4.38Zm-8.88-5a22.81,22.81,0,0,1,6.32.9l.24-2.11a1,1,0,0,0-.27-.74,1,1,0,0,0-.76-.34h-11a1,1,0,0,0-1,1.13l.23,2.06A22.81,22.81,0,0,1,23.11,12.45Z" /> <path d="M39.47,35.83h-3A11.18,11.18,0,0,0,25.31,24.67v-3A14.18,14.18,0,0,1,39.47,35.83Z" /> </svg>