<svg xmlns="http://www.w3.org/2000/svg" viewBox="0 0 448.9 448.99"><defs><style>.cls-1{fill:#5b6677;}</style></defs><title>search-ico_1</title><g id="Layer_2" data-name="Layer 2"><g id="Layer_1-2" data-name="Layer 1"><path class="cls-1" d="M440.88,402,348.6,309.73a193.49,193.49,0,0,0,38.71-116.08C387.31,86.87,300.43,0,193.65,0S0,86.87,0,193.65,86.87,387.31,193.65,387.31A193.49,193.49,0,0,0,309.73,348.6L402,440.89A27.71,27.71,0,0,0,421.45,449a27.55,27.55,0,0,0,19.43-47ZM332.13,193.65c0,76.46-62.16,138.66-138.57,138.66S55,270.11,55,193.65,117.15,55.08,193.56,55.08,332.13,117.25,332.13,193.65Z"/></g></g></svg>