<svg xmlns="http://www.w3.org/2000/svg" viewBox="0 0 265.12 215.46">
  <title>tw-blue</title>
  <g id="Слой_2" data-name="Слой 2">
    <g id="Layer_1" data-name="Layer 1">
      <path d="M265.12,25.5a108.74,108.74,0,0,1-31.24,8.56A54.56,54.56,0,0,0,257.79,4a108.9,108.9,0,0,1-34.54,13.2,54.44,54.44,0,0,0-92.69,49.61A154.42,154.42,0,0,1,18.46,10,54.45,54.45,0,0,0,35.29,82.57a54.19,54.19,0,0,1-24.64-6.8c0,.23,0,.45,0,.68a54.43,54.43,0,0,0,43.63,53.33,54.52,54.52,0,0,1-24.56.93,54.44,54.44,0,0,0,50.81,37.77A109.13,109.13,0,0,1,13,191.78,110.56,110.56,0,0,1,0,191a154,154,0,0,0,83.38,24.44c100,0,154.76-82.88,154.76-154.76q0-3.54-.16-7A110.52,110.52,0,0,0,265.12,25.5Z" style="fill: #4488c7"/>
    </g>
  </g>
</svg>
