<svg xmlns="http://www.w3.org/2000/svg" viewBox="0 0 173.41 216.9">
  <title>vk</title>
  <g id="Слой_2" data-name="Слой 2">
    <g id="Layer_1" data-name="Layer 1">
      <path d="M.42,0h98.5c32.41,0,60,15.88,60,48,0,26.81-9.73,37.24-29.68,49,1.7,1.4,13.13,4.81,17,6.7a46.62,46.62,0,0,1,13.8,10.2c11.31,11.5,13.42,22,13.42,40.07,0,41.87-40.5,62.92-79.49,62.92H0L.42,0ZM53.94,57V85.15c25.37,0,49.21,3.34,49.21-24.17,0-25.47-27-21.27-49.23-21.27l0,17.27Zm0,120c27.8,0,62.14,4.58,62.75-27,.63-32.92-35.28-27-62.73-27l0,54Z" style="fill: #ced3e1;fill-rule: evenodd"/>
    </g>
  </g>
</svg>
