<svg xmlns="http://www.w3.org/2000/svg" viewBox="0 0 208.22 290.38">
  <title>yt</title>
  <g id="Слой_2" data-name="Слой 2">
    <g id="Layer_1" data-name="Layer 1">
      <g>
        <g>
          <polygon points="75.94 0 54.8 0 41.94 53.84 40.62 53.84 27.13 0 6.17 0 6.17 0.01 30.92 81.32 30.92 134.7 51.73 134.7 51.73 78.81 75.94 0 75.94 0" style="fill: #cdd2e1"/>
          <path d="M82.28,129.72q7.24,7.46,19.31,7.49h.18q12.53,0,19.69-7.26t7.17-20V58.6q0-11.35-7.31-18.56t-18.8-7.21q-12.6,0-20.05,6.84T75,58v51.52q0,12.66,7.27,20.15ZM94,57.31h0A7,7,0,0,1,96.13,52a7.67,7.67,0,0,1,5.49-2,8.61,8.61,0,0,1,5.92,2,6.74,6.74,0,0,1,2.26,5.27v54.12a8.63,8.63,0,0,1-2.21,6.28,7.89,7.89,0,0,1-6,2.29A7.15,7.15,0,0,1,96,117.76a9.31,9.31,0,0,1-2-6.34V57.31Z" style="fill: #cdd2e1"/>
          <path d="M178.57,35.34v75.43a26.11,26.11,0,0,1-5.72,5.34c-2.07,1.4-3.78,2.09-5.14,2.09a4.32,4.32,0,0,1-3.75-1.58c-.77-1.05-1.16-2.75-1.16-5.11V35.34H144.32v83.09q0,8.85,3.25,13.28t9.65,4.42A21.69,21.69,0,0,0,167.95,133a40.85,40.85,0,0,0,10.63-9.23v11H197V35.34Z" style="fill: #cdd2e1"/>
        </g>
        <g>
          <path d="M173,207.26a4.94,4.94,0,0,0-4.33,1.85c-.87,1.23-1.32,3.27-1.32,6.11v6.88h11.16v-6.88q0-4.27-1.31-6.11A4.79,4.79,0,0,0,173,207.26Z" style="fill: #cdd2e1"/>
          <path d="M126.58,207a5.85,5.85,0,0,0-2.66.67,9.55,9.55,0,0,0-2.62,2.07v42.34a11,11,0,0,0,3,2.39,6.55,6.55,0,0,0,3,.73,4,4,0,0,0,3.41-1.43,7.82,7.82,0,0,0,1.09-4.69V214a8.54,8.54,0,0,0-1.35-5.23A4.62,4.62,0,0,0,126.58,207Z" style="fill: #cdd2e1"/>
          <path d="M206.82,181.3a29.91,29.91,0,0,0-30.07-29.72q-33.77-1.41-69-1.38h-7.35q-35.17,0-69,1.38A29.9,29.9,0,0,0,1.39,181.3c-1,13-1.43,26-1.39,39s.39,26,1.39,39A29.9,29.9,0,0,0,31.46,289q33.92,1.42,69.3,1.38h6.69q35.34,0,69.3-1.38a29.91,29.91,0,0,0,30.07-29.72c1-13,1.43-26,1.4-39S207.81,194.3,206.82,181.3ZM45.62,265H31.39V186.28H16.68V172.92H60.34v13.37H45.62Zm50.6,0H83.59v-7.51a27.5,27.5,0,0,1-7.27,6.32A14.72,14.72,0,0,1,69,266a7.65,7.65,0,0,1-6.6-3q-2.23-3-2.23-9.1V197.08H72.8v52.08a6,6,0,0,0,.8,3.5,3,3,0,0,0,2.57,1.08,6.86,6.86,0,0,0,3.52-1.42,17.63,17.63,0,0,0,3.9-3.66V197.08H96.22Zm48.62-14.08q0,7.25-3,11.09c-2,2.56-4.84,3.85-8.58,3.85a14.17,14.17,0,0,1-6.61-1.5,17,17,0,0,1-5.4-4.58V265H108.55V172.92h12.74v29.65a19.62,19.62,0,0,1,5.43-4.73,11.75,11.75,0,0,1,5.82-1.62,10.62,10.62,0,0,1,9.15,4.35q3.17,4.36,3.16,12.68Zm46.69-18.3H167.37v12.82c0,3.57.42,6.05,1.26,7.43a4.57,4.57,0,0,0,4.26,2.07c2.09,0,3.57-.59,4.4-1.75s1.25-3.75,1.25-7.75v-4.72h13v5.11q0,10.44-4.75,15.73t-14.18,5.28q-8.48,0-13.36-5.6t-4.87-15.42v-30.5q0-8.85,5.35-14.42a18.36,18.36,0,0,1,13.83-5.56q8.67,0,13.33,5.16t4.64,14.83Z" style="fill: #cdd2e1"/>
        </g>
      </g>
    </g>
  </g>
</svg>
