<?xml version="1.0" encoding="utf-8"?>
<!-- Generator: Adobe Illustrator 22.0.0, SVG Export Plug-In . SVG Version: 6.00 Build 0)  -->
<svg version="1.1" id="Layer_1" xmlns="http://www.w3.org/2000/svg" xmlns:xlink="http://www.w3.org/1999/xlink" x="0px" y="0px"
	 viewBox="0 0 448.9 449" style="enable-background:new 0 0 448.9 449;" xml:space="preserve">
<style type="text/css">
	.st0{fill:#5B6677;}
	.st1{fill:none;stroke:#5B6677;stroke-width:36;stroke-linecap:round;stroke-linejoin:round;}
</style>
<title>zoom-in-ico</title>
<g id="Layer_2_1_">
	<g id="Layer_1-2">
		<path class="st0" d="M440.9,402l-92.3-92.3c25.1-33.5,38.7-74.2,38.7-116.1C387.3,86.9,300.4,0,193.6,0S0,86.9,0,193.7
			s86.9,193.7,193.6,193.7c41.9,0,82.6-13.6,116.1-38.7l92.3,92.3c5.2,5.2,12.2,8.1,19.5,8.1c15.2,0,27.5-12.4,27.5-27.6
			C448.9,414.1,446,407.1,440.9,402z M332.1,193.7c0,76.5-62.2,138.7-138.6,138.7S55,270.1,55,193.7S117.2,55.1,193.6,55.1
			S332.1,117.3,332.1,193.7z"/>
		<line class="st1" x1="133.9" y1="188.9" x2="253.9" y2="188.9"/>
		<line class="st1" x1="193.9" y1="248.9" x2="193.9" y2="128.9"/>
	</g>
</g>
</svg>
